<?xml version="1.0" encoding="UTF-8"?>
<svg id="Layer_1" xmlns="http://www.w3.org/2000/svg" version="1.1" viewBox="0 0 72 75.87">
  <!-- Generator: Adobe Illustrator 30.0.0, SVG Export Plug-In . SVG Version: 2.1.1 Build 123)  -->
  <defs>
    <style>
      .st0 {
        fill: #faa431;
      }
    </style>
  </defs>
  <g id="_x23_2c2c2cff">
    <path class="st0" d="M59.54,7.23c-.26.05-.53.11-.8.1-.19-.11-.36-.25-.54-.39-.03.23-.05.46-.12.68-.17.17-.38.3-.58.44.22.12.47.18.66.35.11.22.17.45.26.68.16-.19.32-.39.49-.58.25.02.49.05.74.07-.1-.16-.2-.31-.3-.47-.25-.29.1-.6.2-.88Z"/>
    <path class="st0" d="M65.43,16.63c.15-.57.54-1.08.52-1.69-.51.15-.97.44-1.47.61-.53-.2-.86-.77-1.41-.97-.19.55.09,1.12.04,1.68-.45.35-.97.6-1.38.99.51.25,1.08.28,1.6.46.27.52.32,1.13.57,1.67.37-.44.62-.96.95-1.43.56-.03,1.14.09,1.69-.05-.32-.47-.73-.86-1.12-1.26Z"/>
    <path class="st0" d="M47.61.92c-.02-.31.06-.62.1-.92-.33.13-.66.57-1.04.38-.2-.08-.39-.17-.59-.26.07.29.13.58.2.87-.2.21-.41.43-.61.64.3.05.61.06.91.14.18.24.32.52.47.77.13-.28.22-.58.38-.85.28-.09.57-.11.86-.17-.22-.2-.46-.39-.68-.6Z"/>
    <path class="st0" d="M49.56,9.7c-.17-.5-.02-1.07-.2-1.58-.41.32-.71.75-1.11,1.09-.53.1-1.11-.56-1.58-.2.19.46.51.85.73,1.3-.22.48-.58.88-.81,1.35.54.12,1.04-.19,1.58-.18.36.38.63.82,1,1.19.33-.47.19-1.07.34-1.59.46-.23.97-.38,1.4-.68-.41-.31-.93-.42-1.35-.7Z"/>
    <path class="st0" d="M71.28,31.44c.02-.25.05-.51.05-.76-.31-.01-.52.26-.79.37-.3-.07-.6-.19-.9-.27.11.28.22.56.33.84-.2.25-.4.5-.61.74.3.01.6,0,.89.05.22.21.35.49.52.73.18-.31.2-.82.62-.9.2-.07.39-.12.59-.19-.24-.2-.48-.4-.72-.61Z"/>
    <path class="st0" d="M66.83,30.16c.05-.23.13-.45.2-.68-.22.06-.44.13-.65.19-.16-.15-.32-.29-.49-.44,0,.44-.14.86-.57,1.05.42.11.73.38.83.81.22-.41.63-.46,1.04-.4-.12-.17-.28-.33-.35-.53Z"/>
    <path class="st0" d="M57.16,23.59c.1-1.15-.49-2.23-1.18-3.1-.78-.96-2.01-1.42-3.2-1.64-.82-.15-1.55.33-2.11.86,1.84,1.88,3.71,3.74,5.59,5.59.43-.48.85-1.04.89-1.71M56.02,23.34c-.46-.14-.73-.65-1.09-.96.18-.22.36-.44.55-.65.25.51.53,1.03.54,1.61Z"/>
    <path class="st0" d="M35.52,3.57c.07-.32.27-.58.41-.86-.31.03-.62.14-.93.1-.21-.2-.4-.42-.59-.64-.09.3-.12.62-.28.89-.23.16-.5.27-.76.41.3.17.6.33.87.54,0,.29.01.57.05.86.25-.21.44-.5.74-.64.27.03.54.11.81.14,0-.29-.23-.53-.32-.8Z"/>
    <path class="st0" d="M65.08,35.31c-.74-.88-1.61-1.64-2.39-2.49-.42-.47-.85-.94-1.39-1.26-.34-.18-.73-.12-1.09-.05-1.47.42-3.14-.77-3.29-2.27-.02-.68.47-1.47-.12-2.05-1.62-1.68-3.3-3.3-4.94-4.97-1.29-1.27-2.52-2.61-3.89-3.79-2.03-1.62-4.42-2.73-6.9-3.46-2.19-.61-4.46-.96-6.74-.86-2.59.11-5.17.67-7.54,1.72-.52.27-1.13.5-1.47,1.01-.3.58.33,1.17.88,1.23,1.05.14,2.11.04,3.17.1,2.47.12,4.98.44,7.25,1.46,1.32.56,2.57,1.33,3.58,2.36.55.58,1.02,1.38.82,2.21-.24.97-.98,1.7-1.61,2.42-.41.46-.94.97-.91,1.64.08.75.76,1.22,1.23,1.73,2.4,2.35,4.78,4.74,7.16,7.12.44.5,1.13.27,1.7.41,1.11.27,1.98,1.19,2.35,2.24.28.7-.11,1.54.38,2.18.76.96,1.71,1.76,2.55,2.65.48.45.93,1.13,1.66,1.11.64.04,1.05-.52,1.49-.88,2.43-2.33,4.82-4.7,7.15-7.13.32-.34.63-.68.9-1.06.27-.39.24-.94-.03-1.31M64.04,36.08c-.39.55-.91.99-1.37,1.47-2.35,2.34-4.66,4.72-7.07,6.99-.27-.21-.52-.44-.76-.68,2.88-2.85,5.74-5.72,8.61-8.58.2.25.55.46.59.8M55.98,28.04c-.45.61-.84,1.26-1.21,1.92-.06-.85.39-1.63.81-2.32.13.14.27.27.4.41M56.71,31.46c.38.44.9.71,1.35,1.06-.77.18-1.68.05-2.21-.58-.42-.57-.32-1.34-.06-1.96.3.49.54,1.04.92,1.48M51.91,38.69c-.67-.93-1.49-1.75-2.5-2.31.64-.15,1.41-.23,1.93.24.62.48.75,1.35.57,2.07M49.56,35.47c-.54.23-1.1.45-1.63.7-.25.16-.44-.1-.61-.26.67-.38,1.47-.63,2.24-.44Z"/>
    <path class="st0" d="M28.1,5.66c.07-.32.19-.64.19-.98-.29.14-.58.28-.87.43-.28-.23-.57-.44-.88-.64-.01.34.03.67.04,1-.22.29-.57.45-.84.69.34.11.7.17,1.04.31.15.32.26.66.4.98.19-.28.34-.59.55-.87.35-.07.71-.04,1.06-.08-.23-.29-.53-.52-.69-.86Z"/>
    <path class="st0" d="M67.67,46.6c.1-.35-.31-.52-.51-.71-.21.17-.55.28-.56.6-.05.35.32.49.55.67.2-.17.49-.28.53-.56Z"/>
    <path class="st0" d="M64.25,52.72c-.36-.06-.72.02-1.08.03-.24-.23-.44-.51-.66-.76-.09.34-.14.69-.26,1.02-.3.17-.63.28-.94.41.32.19.68.33.96.58.1.35.1.71.12,1.07.22-.24.43-.49.66-.71.28-.28.83.34,1.03-.04-.11-.27-.26-.53-.36-.8.14-.29.35-.54.53-.8Z"/>
    <path class="st0" d="M45.26,36.74c-1.99-2.07-4.03-4.1-6.09-6.1-3.97,4.7-8.26,9.13-12.86,13.21-.39,0-.79-.19-1.18-.05-.6.19-1,.72-1.45,1.13-3.76,3.58-7.49,7.18-11.23,10.78-1.98,1.78-3.79,3.73-5.78,5.5-1.76,1.75-3.58,3.43-5.37,5.15-.69.63-1.25,1.46-1.3,2.42-.08.97.34,1.92.95,2.66,1.18,1.42,2.47,2.77,3.98,3.85,1.15.82,2.86.8,3.92-.18,2.45-2.38,4.69-4.95,7.09-7.39,4.43-4.69,8.91-9.33,13.37-13.99.79-.95,1.76-1.74,2.54-2.69.34-.43.13-.98.13-1.46,2.29-2.63,4.78-5.08,7.26-7.52,1.94-1.84,3.94-3.62,6.02-5.31M43.5,36.69c-4.45,3.66-8.48,7.8-12.4,12.02-1.3-1.31-2.6-2.63-3.91-3.93,4.24-3.89,8.29-7.99,12.05-12.35,1.41,1.43,2.86,2.82,4.26,4.27M30.58,50.54c-.15.21-.33.39-.51.57-4.72,4.86-9.35,9.81-14.08,14.68-2.09,2.21-4.18,4.4-6.27,6.61-.56.57-1.08,1.17-1.68,1.69-.42.38-1.02.4-1.54.3,2.59-2.31,4.83-4.98,7.27-7.44,5.44-5.68,10.88-11.35,16.37-16.99.16.18.36.35.43.58Z"/>
    <path class="st0" d="M49.07,46.78c.07-.28.19-.55.28-.83-.27.09-.54.2-.82.27-.28-.12-.5-.34-.76-.51,0,.3,0,.6-.05.9-.2.19-.44.34-.66.5.28.09.58.14.84.3.15.23.2.5.3.76.16-.21.31-.43.49-.63.3-.07.6-.03.9-.03-.17-.24-.38-.46-.52-.73Z"/>
    <path class="st0" d="M27.6,26.49c.09-.5.4-.94.45-1.46-.52-.07-.93.38-1.42.49-.43-.29-.79-.69-1.27-.91-.08.5.07,1,.09,1.49-.36.38-.85.61-1.23.98.48.24,1.04.24,1.53.44.18.48.25,1,.52,1.45.28-.42.49-.88.8-1.28.5-.1,1.05.12,1.51-.17-.31-.36-.67-.67-.97-1.04Z"/>
    <path class="st0" d="M22.74,20.91c-.11-.47-.78-.59-1.01-.13-.26.35.12.63.33.89.31-.14.77-.34.68-.76Z"/>
    <path class="st0" d="M51.89,57.49c.2-.65.62-1.23.75-1.91-.54.16-1.03.44-1.54.67-.15.06-.33.16-.5.08-.55-.22-1.04-.56-1.61-.72-.02.05-.06.14-.08.19.18.59.56,1.09.71,1.69-.19.67-.62,1.26-.82,1.93.67-.16,1.23-.58,1.88-.79.68.13,1.27.56,1.94.74-.07-.69-.58-1.23-.75-1.88Z"/>
    <path class="st0" d="M18.02,22.29c0-.43-.6-.66-.9-.34-.45.31.01,1.07.49.9.22-.08.43-.31.41-.56Z"/>
    <path class="st0" d="M43.18,49.25c-.06-.47-.81-.64-1.03-.19-.26.39.2.95.63.8.21-.13.43-.34.4-.61Z"/>
    <path class="st0" d="M22.25,35.87c.06-.29.13-.58.18-.87-.28.12-.55.3-.86.35-.24-.12-.47-.28-.71-.42,0,.29.05.57.11.86-.2.21-.41.42-.61.63.28.07.57.12.84.21.14.24.25.5.37.74.17-.24.27-.55.49-.75.25-.07.51-.09.77-.13-.19-.21-.38-.41-.58-.62Z"/>
  </g>
</svg>